<svg width="125" height="26" viewBox="0 0 125 26" fill="none" xmlns="http://www.w3.org/2000/svg">
<path d="M9.6885 1.50999C4.6585 1.50999 0.582001 5.58649 0.582001 10.6165C0.582001 13.131 1.601 15.4075 3.2485 17.057L10.648 24.4585L13.412 21.694L6.014 14.291C5.074 13.3505 4.4915 12.0515 4.4915 10.616C4.4915 7.74499 6.8185 5.41849 9.689 5.41849C12.5595 5.41849 14.8855 7.74449 14.8855 10.616C14.8855 13.4275 12.654 15.7155 9.8635 15.8085L13.1095 19.0555C16.4435 17.703 18.797 14.4355 18.797 10.616C18.796 5.58649 14.717 1.50999 9.6885 1.50999Z" fill="#F97432"/>
<path d="M9.68851 14.1635C11.6477 14.1635 13.236 12.5752 13.236 10.616C13.236 8.65677 11.6477 7.0685 9.68851 7.0685C7.72928 7.0685 6.14101 8.65677 6.14101 10.616C6.14101 12.5752 7.72928 14.1635 9.68851 14.1635Z" fill="#F97432"/>
<path d="M26.5315 24.045C26.232 24.342 25.879 24.493 25.474 24.493C25.063 24.493 24.7155 24.3415 24.4265 24.045C24.137 23.745 23.9915 23.4065 23.9915 23.0275V7.25C23.9915 6.8525 24.1335 6.512 24.414 6.2305C24.6945 5.951 25.029 5.8105 25.419 5.8105C25.8075 5.8105 26.142 5.919 26.4225 6.1365C26.704 6.3525 26.8715 6.616 26.9255 6.924C28.066 6.1825 29.2975 5.81 30.617 5.81C32.4275 5.81 33.975 6.479 35.262 7.819C36.5465 9.16 37.1895 10.7635 37.1895 12.6255C37.1895 14.4905 36.546 16.0785 35.262 17.391C33.9755 18.7055 32.4275 19.3605 30.617 19.3605C29.2235 19.3605 28.0125 18.9905 26.9785 18.246V23.0265C26.979 23.406 26.8295 23.745 26.5315 24.045ZM33.171 9.883C32.4645 9.143 31.6045 8.7705 30.5915 8.7705C29.5765 8.7705 28.721 9.145 28.0235 9.898C27.3275 10.6485 26.9785 11.586 26.9785 12.707C26.9785 13.831 27.3325 14.709 28.038 15.3425C28.7265 16.1005 29.5725 16.482 30.577 16.482C31.582 16.482 32.4425 16.1 33.1575 15.3425C33.872 14.58 34.23 13.6815 34.23 12.6385C34.2295 11.599 33.877 10.6805 33.171 9.883Z" fill="#4F4E4E"/>
<path d="M52.098 12.246C52.098 12.6445 51.9645 12.9655 51.7025 13.21C51.4405 13.454 51.092 13.576 50.658 13.576H42.023C42.1855 14.3555 42.493 14.952 42.9455 15.369C43.525 16.039 44.3715 16.4405 45.4855 16.577C46.6 16.7125 47.562 16.49 48.377 15.912C48.648 15.623 49.0095 15.4785 49.4635 15.4785C49.9155 15.4785 50.2325 15.5955 50.413 15.831C50.92 16.3905 50.92 16.9815 50.413 17.5955C49.111 18.789 47.512 19.3825 45.62 19.374C43.7275 19.365 42.144 18.701 40.8685 17.378C39.593 16.0565 38.946 14.464 38.927 12.5995C38.946 10.735 39.5935 9.137 40.8685 7.8065C42.1445 6.477 43.6875 5.8105 45.498 5.8105C47.3085 5.8105 48.8335 6.4045 50.075 7.5905C51.314 8.775 51.9885 10.2815 52.098 12.1105V12.246ZM45.5535 8.3905C44.5025 8.443 43.6615 8.7705 43.028 9.368C42.3935 9.9655 42.0125 10.5985 41.8875 11.269H49.571C49.41 10.6365 48.969 10.0195 48.254 9.4225C47.5385 8.824 46.6395 8.4805 45.5535 8.3905Z" fill="#4F4E4E"/>
<path d="M55.383 17.4325C54.1145 16.13 53.481 14.541 53.481 12.6665C53.481 10.7925 54.1145 9.1825 55.383 7.8345C56.649 6.4845 58.1885 5.8105 59.999 5.8105C61.3745 5.8105 62.587 6.1915 63.637 6.952C63.7095 6.627 63.881 6.3525 64.153 6.1365C64.424 5.9185 64.7465 5.8105 65.1175 5.8105C65.488 5.8105 65.8145 5.951 66.0935 6.2305C66.3735 6.512 66.516 6.8525 66.516 7.25V17.7305C66.516 19.5245 65.877 21.0585 64.6015 22.334C63.326 23.6105 61.791 24.247 59.999 24.247C58.967 24.247 58.0175 24.0205 57.1475 23.5695C56.785 23.4065 56.5405 23.131 56.414 22.7415C56.287 22.353 56.315 21.978 56.4945 21.6135C56.677 21.252 56.953 21.007 57.3245 20.881C57.695 20.754 58.071 20.7725 58.4495 20.9355C58.92 21.1885 59.514 21.3155 60.2285 21.3155C60.944 21.3155 61.632 21.04 62.2925 20.4885C62.9535 19.936 63.374 19.2425 63.556 18.4095C62.505 19.135 61.3195 19.4965 59.9985 19.4965C58.188 19.496 56.649 18.8075 55.383 17.4325ZM56.414 12.68C56.414 13.749 56.758 14.662 57.4465 15.4235C58.134 16.1835 58.989 16.563 60.0115 16.563C61.0365 16.563 61.89 16.192 62.5775 15.4505C63.2655 14.7085 63.6105 13.7845 63.6105 12.6795C63.6105 11.5755 63.262 10.639 62.564 9.871C61.867 9.0995 61.02 8.716 60.0255 8.716C59.029 8.716 58.178 9.109 57.473 9.897C56.768 10.6845 56.414 11.6115 56.414 12.68Z" fill="#4F4E4E"/>
<path d="M72.635 2.9705V3.542C72.635 3.958 72.494 4.3115 72.2145 4.5995C71.9335 4.8895 71.5905 5.034 71.1815 5.034C70.774 5.034 70.4265 4.8895 70.1365 4.5995C69.848 4.3115 69.7035 3.958 69.7035 3.542V2.9705C69.7035 2.574 69.848 2.2295 70.1365 1.9395C70.4265 1.651 70.7735 1.5065 71.1815 1.5065C71.5905 1.5065 71.9335 1.644 72.2145 1.9265C72.4935 2.207 72.635 2.5555 72.635 2.9705Z" fill="#4F4E4E"/>
<path d="M70.1225 6.259C70.4025 5.9795 70.752 5.838 71.1675 5.838C71.5855 5.838 71.933 5.9795 72.2145 6.259C72.494 6.5405 72.635 6.8965 72.635 7.332V17.9215C72.635 18.3385 72.494 18.686 72.2145 18.9675C71.9335 19.2485 71.5905 19.3885 71.1815 19.3885C70.774 19.3885 70.4265 19.243 70.1365 18.953C69.848 18.665 69.7035 18.319 69.7035 17.922V7.3315C69.703 6.8965 69.8415 6.5405 70.1225 6.259Z" fill="#4F4E4E"/>
<path d="M78.3145 24.045C78.016 24.342 77.663 24.493 77.257 24.493C76.8475 24.493 76.499 24.3415 76.211 24.045C75.9205 23.745 75.776 23.4065 75.776 23.0275V7.25C75.776 6.8525 75.9145 6.512 76.196 6.2305C76.478 5.951 76.8115 5.8105 77.2015 5.8105C77.59 5.8105 77.926 5.919 78.206 6.1365C78.4875 6.3525 78.655 6.616 78.7095 6.924C79.8495 6.1825 81.081 5.81 82.403 5.81C84.211 5.81 85.759 6.479 87.0465 7.819C88.33 9.16 88.974 10.7635 88.974 12.6255C88.974 14.4905 88.33 16.0785 87.0465 17.391C85.759 18.7055 84.211 19.3605 82.403 19.3605C81.008 19.3605 79.7965 18.9905 78.764 18.246V23.0265C78.763 23.406 78.6125 23.745 78.3145 24.045ZM84.955 9.883C84.249 9.143 83.3875 8.7705 82.3745 8.7705C81.36 8.7705 80.5055 9.145 79.808 9.898C79.1105 10.6485 78.763 11.586 78.763 12.707C78.763 13.831 79.116 14.709 79.821 15.3425C80.5095 16.1005 81.3555 16.482 82.3605 16.482C83.3655 16.482 84.225 16.1 84.94 15.3425C85.654 14.58 86.0125 13.6815 86.0125 12.6385C86.0125 11.599 85.6595 10.6805 84.955 9.883Z" fill="#F97432"/>
<path d="M103.882 12.246C103.882 12.6445 103.748 12.9655 103.486 13.21C103.224 13.4545 102.874 13.576 102.442 13.576H93.8065C93.968 14.3555 94.277 14.952 94.729 15.369C95.309 16.039 96.1555 16.4405 97.2685 16.577C98.383 16.7125 99.346 16.49 100.16 15.912C100.431 15.623 100.794 15.4785 101.247 15.4785C101.699 15.4785 102.016 15.5955 102.197 15.831C102.704 16.3905 102.704 16.9815 102.197 17.5955C100.894 18.789 99.2945 19.3825 97.404 19.374C95.511 19.365 93.927 18.701 92.652 17.378C91.375 16.0565 90.729 14.464 90.711 12.5995C90.729 10.735 91.375 9.137 92.652 7.8065C93.927 6.477 95.472 5.8105 97.282 5.8105C99.092 5.8105 100.617 6.4045 101.858 7.5905C103.096 8.775 103.773 10.2815 103.882 12.1105V12.246ZM97.3375 8.3905C96.2855 8.443 95.444 8.7705 94.8095 9.368C94.177 9.9655 93.797 10.5985 93.671 11.269H101.354C101.193 10.6365 100.753 10.0195 100.037 9.4225C99.3235 8.824 98.424 8.4805 97.3375 8.3905Z" fill="#F97432"/>
<path d="M107.166 17.4325C105.899 16.13 105.264 14.541 105.264 12.6665C105.264 10.7925 105.899 9.1825 107.166 7.8345C108.432 6.4845 109.971 5.8105 111.784 5.8105C113.158 5.8105 114.368 6.1915 115.42 6.952C115.494 6.627 115.665 6.3525 115.937 6.1365C116.206 5.9185 116.53 5.8105 116.9 5.8105C117.271 5.8105 117.598 5.951 117.877 6.2305C118.158 6.512 118.299 6.8525 118.299 7.25V17.7305C118.299 19.5245 117.661 21.0585 116.384 22.334C115.108 23.6105 113.573 24.247 111.784 24.247C110.75 24.247 109.801 24.0205 108.931 23.5695C108.567 23.4065 108.325 23.131 108.198 22.7415C108.07 22.353 108.099 21.978 108.278 21.6135C108.46 21.252 108.736 21.007 109.107 20.881C109.478 20.754 109.854 20.7725 110.232 20.9355C110.705 21.1885 111.298 21.3155 112.013 21.3155C112.729 21.3155 113.416 21.04 114.077 20.4885C114.737 19.936 115.158 19.2425 115.339 18.4095C114.288 19.135 113.102 19.4965 111.783 19.4965C109.971 19.496 108.432 18.8075 107.166 17.4325ZM108.198 12.68C108.198 13.749 108.542 14.662 109.229 15.4235C109.919 16.1835 110.774 16.563 111.796 16.563C112.819 16.563 113.674 16.192 114.362 15.4505C115.05 14.7085 115.395 13.7845 115.395 12.6795C115.395 11.5755 115.045 10.639 114.348 9.871C113.65 9.0995 112.806 8.716 111.81 8.716C110.814 8.716 109.964 9.109 109.258 9.897C108.552 10.6845 108.198 11.6115 108.198 12.68Z" fill="#F97432"/>
<path d="M124.418 2.9705V3.542C124.418 3.958 124.279 4.3115 123.998 4.5995C123.717 4.8895 123.374 5.034 122.966 5.034C122.558 5.034 122.21 4.8895 121.92 4.5995C121.631 4.3115 121.487 3.958 121.487 3.542V2.9705C121.487 2.574 121.631 2.2295 121.92 1.9395C122.21 1.651 122.558 1.5065 122.966 1.5065C123.375 1.5065 123.718 1.644 123.998 1.9265C124.279 2.207 124.418 2.5555 124.418 2.9705Z" fill="#F97432"/>
<path d="M121.907 6.259C122.186 5.9795 122.535 5.838 122.951 5.838C123.367 5.838 123.717 5.9795 123.998 6.259C124.279 6.5405 124.418 6.8965 124.418 7.332V17.9215C124.418 18.3385 124.279 18.686 123.998 18.9675C123.717 19.2485 123.374 19.3885 122.966 19.3885C122.558 19.3885 122.21 19.243 121.92 18.953C121.631 18.665 121.487 18.319 121.487 17.922V7.3315C121.487 6.8965 121.625 6.5405 121.907 6.259Z" fill="#F97432"/>
</svg>
