<svg width="16" height="16" viewBox="0 0 16 16" fill="none" xmlns="http://www.w3.org/2000/svg">
<path d="M12.4389 9.74012C12.2446 9.92837 12.1554 10.2006 12.1996 10.4676L12.8664 14.1576C12.9226 14.4704 12.7906 14.7869 12.5289 14.9676C12.2724 15.1551 11.9311 15.1776 11.6514 15.0276L8.32963 13.2951C8.21413 13.2336 8.08588 13.2006 7.95463 13.1969H7.75138C7.68088 13.2074 7.61188 13.2299 7.54888 13.2644L4.22637 15.0051C4.06212 15.0876 3.87612 15.1169 3.69387 15.0876C3.24987 15.0036 2.95362 14.5806 3.02637 14.1344L3.69387 10.4444C3.73812 10.1751 3.64887 9.90137 3.45462 9.71012L0.746375 7.08512C0.519875 6.86537 0.441125 6.53537 0.544625 6.23762C0.645125 5.94062 0.901625 5.72387 1.21137 5.67512L4.93887 5.13437C5.22237 5.10512 5.47137 4.93262 5.59887 4.67762L7.24137 1.31012C7.28037 1.23512 7.33063 1.16612 7.39138 1.10762L7.45887 1.05512C7.49412 1.01612 7.53462 0.983872 7.57962 0.957622L7.66138 0.927622L7.78888 0.875122H8.10462C8.38662 0.904372 8.63488 1.07312 8.76463 1.32512L10.4289 4.67762C10.5489 4.92287 10.7821 5.09312 11.0514 5.13437L14.7789 5.67512C15.0939 5.72012 15.3571 5.93762 15.4614 6.23762C15.5596 6.53837 15.4749 6.86837 15.2439 7.08512L12.4389 9.74012Z" fill="#191726"/>
</svg>
