<svg width="126" height="40" viewBox="0 0 126 40" fill="none" xmlns="http://www.w3.org/2000/svg">
<path fill-rule="evenodd" clip-rule="evenodd" d="M114.075 6.9824C119.005 3.85795 125.195 3.25804 125.195 3.25804C125.195 3.25804 118.628 10.6974 117.022 14.1345C116.527 15.6338 117.565 16.8535 117.565 16.8535C117.565 16.8535 114.688 13.6428 114.075 6.9824Z" fill="#1BA0E2"/>
<path fill-rule="evenodd" clip-rule="evenodd" d="M116.21 5.80835C115.487 6.15332 114.769 6.54288 114.075 6.98241C114.387 10.3702 115.284 12.8655 116.091 14.4997C116.523 15.2602 116.934 15.8966 117.243 16.3512C117.086 16.0481 116.925 15.6254 116.894 15.1325C116.475 13.5379 116.092 10.7197 116.21 5.80835Z" fill="#0D7FCC"/>
<path fill-rule="evenodd" clip-rule="evenodd" d="M109.655 9.88897C109.655 9.88897 109.331 8.75284 109.219 8.42515C108.918 7.54249 108.61 6.64509 108.61 5.11347C108.61 3.01323 112.199 0.772426 114.386 0.0687256C113.793 7.71238 114.655 10.0519 115.449 12.5926C117.328 18.8444 121.619 19.7483 122.042 20.1721C120.948 19.9365 121.573 20.4452 121.573 20.4452C121.573 20.4452 119.826 19.234 116.309 18.2424C112.793 17.2509 110.049 17.0991 108.37 16.1489C107.077 15.1811 107.036 14.3927 106.421 13.8634C104.403 12.1249 99.3225 11.3938 99.3225 11.3938L103.694 12.1037C103.694 12.1037 104.295 12.1037 105.004 11.8498C105.157 11.8299 105.643 11.2768 106.697 11.6265C107.131 11.7689 107.009 11.9237 108.251 12.2718C109.825 12.713 109.655 9.88897 109.655 9.88897Z" fill="#1BA0E2"/>
<path fill-rule="evenodd" clip-rule="evenodd" d="M1.74893 23.081C1.74893 27.5504 5.1673 28.0794 6.88974 28.0794C7.41972 28.0794 7.7907 28.0265 7.7907 28.0265V25.7521C7.7907 25.7521 7.55221 25.805 7.18123 25.805C6.20076 25.805 4.31934 25.4612 4.31934 22.7901V16.8396H7.55221V14.7768H4.31934V10.9156H1.82843V14.7768H0V16.8396H1.74893V23.081ZM10.1587 27.9736H12.7291V22.4991C12.7291 21.6793 12.8086 20.8595 13.0471 20.0925C13.6566 18.109 15.1671 16.9454 16.81 16.9454C17.2075 16.9454 17.552 17.0247 17.552 17.0247V14.4858C17.552 14.4858 17.234 14.4329 16.8895 14.4329C14.8226 14.4329 13.2591 15.9668 12.6497 17.9239H12.5967C12.5967 17.9239 12.6497 17.4743 12.6497 16.9189V14.5916H10.1587V27.9736ZM18.4147 24.2182C18.4147 26.8893 20.6671 28.2909 22.9726 28.2909C26.1789 28.2909 27.2654 25.6463 27.2654 25.6463H27.3184C27.3184 25.6463 27.2654 26.0959 27.2654 26.7041V27.9736H29.6503V19.5107C29.6503 16.1255 27.7424 14.2743 24.3505 14.2743C21.2766 14.2743 19.3422 15.8611 19.3422 15.8611L20.4022 17.7388C20.4022 17.7388 22.0716 16.4429 24.1385 16.4429C25.8344 16.4429 27.0799 17.1834 27.0799 19.3784V19.6165H26.4969C24.2445 19.6165 18.4147 19.8016 18.4147 24.2182ZM21.0116 24.0859C21.0116 21.6793 24.5095 21.5471 26.4439 21.5471H27.1064V21.9702C27.1064 23.9537 25.702 26.2281 23.529 26.2281C21.8596 26.2281 21.0116 25.1702 21.0116 24.0859ZM36.1522 27.9736H39.1201L44.0754 14.5916H41.3725L38.1131 23.6363C37.8481 24.3768 37.6626 25.4612 37.6361 25.4612H37.5831C37.5566 25.4612 37.3976 24.3768 37.1326 23.6363L33.8733 14.5916H31.1439L36.1522 27.9736ZM44.7527 21.2826C44.7527 25.2496 47.641 28.2909 51.8544 28.2909C55.0608 28.2909 57.0482 26.3868 57.0482 26.3868L55.9882 24.5091C55.9882 24.5091 54.3188 26.0694 52.0134 26.0694C49.6285 26.0694 47.535 24.5884 47.4026 21.6529H57.1807C57.1807 21.6529 57.2602 20.8859 57.2602 20.5421C57.2602 17.0776 55.2463 14.2743 51.4569 14.2743C47.641 14.2743 44.7527 17.0247 44.7527 21.2826ZM47.4821 19.7223C47.853 17.5272 49.443 16.3107 51.4039 16.3107C53.1263 16.3107 54.5573 17.4214 54.6368 19.7223H47.4821ZM59.6334 24.3239C59.6334 27.6827 61.7798 28.0794 63.2373 28.0794C63.6877 28.0794 64.0852 28.0265 64.0852 28.0265V25.7521C64.0852 25.7521 63.8732 25.7785 63.6347 25.7785C62.8398 25.7785 62.2038 25.4876 62.2038 23.8744V9.30232H59.6334V24.3239ZM65.2395 21.2562C65.2395 25.3289 68.4723 28.2909 72.4737 28.2909C76.475 28.2909 79.7079 25.3289 79.7079 21.2562C79.7079 17.2098 76.475 14.2743 72.4737 14.2743C68.4723 14.2743 65.2395 17.2098 65.2395 21.2562ZM67.8629 21.2562C67.8629 18.4793 69.9563 16.4958 72.4737 16.4958C75.0176 16.4958 77.0845 18.4793 77.0845 21.2562C77.0845 24.0595 75.0176 26.0694 72.4737 26.0694C69.9563 26.0694 67.8629 24.0595 67.8629 21.2562ZM82.235 27.9736H84.8054V21.6793H86.7398L90.7676 27.9736H93.762L88.8067 20.5421V20.4892L93.2585 14.5916H90.3436L86.6868 19.5107H84.8054V9.30232H82.235V27.9736ZM94.4923 24.2182C94.4923 26.8893 96.7447 28.2909 99.0501 28.2909C102.256 28.2909 103.343 25.6463 103.343 25.6463H103.396C103.396 25.6463 103.343 26.0959 103.343 26.7041V27.9736H105.728V19.5107C105.728 16.1255 103.82 14.2743 100.428 14.2743C97.3542 14.2743 95.4198 15.8611 95.4198 15.8611L96.4797 17.7388C96.4797 17.7388 98.1491 16.4429 100.216 16.4429C101.912 16.4429 103.157 17.1834 103.157 19.3784V19.6165H102.574C100.322 19.6165 94.4923 19.8016 94.4923 24.2182ZM97.0892 24.0859C97.0892 21.6793 100.587 21.5471 102.521 21.5471H103.184V21.9702C103.184 23.9537 101.78 26.2281 99.6066 26.2281C97.9371 26.2281 97.0892 25.1702 97.0892 24.0859Z" fill="#434343"/>
</svg>
